<svg xmlns="http://www.w3.org/2000/svg" width="1920" height="680" viewBox="0 0 1920 680">
  <defs>
    <style>
      .a {
        fill: #fff;
      }
    </style>
  </defs>
  <title>logotype_white</title>
  <g>
    <path class="a" d="M72.69,259.34V197.7H409.48l-220,280.79H381.7v60.27H60L282.82,259.34H145.33v37.18H72.69Z"/>
    <path class="a" d="M668.17,196v41.78a158.3,158.3,0,0,0-104.1-38.35c-90.4,0-164.37,76-164.37,169.15,0,95.2,74,170.53,164.37,170.53a158.3,158.3,0,0,0,104.1-38.35V539.1h62.32V196ZM564.07,476.78c-57.53,0-104.78-48.63-104.78-108.21,0-58.21,47.25-106.83,104.78-106.83,52.73,0,96.56,40.4,104.1,93.14v28.76C660.63,436.37,616.8,476.78,564.07,476.78Z"/>
    <circle class="a" cx="1577.07" cy="368.23" r="36.44"/>
    <path class="a" d="M828.5,667.66c85.44,0,171.22-64,171.22-159.57v-310H786.83v68.49h144.4V508.09c0,45.89-45.89,91.09-102.73,91.09H786.83v68.48Z"/>
    <rect class="a" x="926.07" y="28.86" width="79.77" height="79.77" transform="translate(234.31 703.17) rotate(-45)"/>
    <path class="a" d="M1372.28,355.9c-7.54-87.66-75.34-159.57-161-159.57-34.92,0-67.11,13-93.82,32.88V196.33h-62.32V538.76h62.32V329.19c15.75-41.09,50-68.48,93.82-68.48,46.57,0,85.61,32.19,98.62,78.07V538.07h62.33Z"/>
    <path class="a" d="M1680.14,196v41.78A158.28,158.28,0,0,0,1576,199.42c-90.4,0-164.36,76-164.36,169.15,0,95.2,74,170.53,164.36,170.53a158.28,158.28,0,0,0,104.1-38.35V539.1h62.32V196ZM1576,476.78c-57.52,0-104.78-48.63-104.78-108.21,0-58.21,47.26-106.83,104.78-106.83,52.74,0,96.57,40.4,104.1,93.13v28.77C1672.61,436.37,1628.78,476.78,1576,476.78Z"/>
    <circle class="a" cx="565.1" cy="368.23" r="36.44"/>
    <path class="a" d="M1860,68.82h-63v469.6h63Z"/>
  </g>
</svg>
