<svg xmlns="http://www.w3.org/2000/svg" class="z-logo" width="500" height="110" viewBox="0 0 514.64 159.69">
	<title>⁯Zajnal</title>
	<g style="fill: #000;">
	  <path  d="M172.82,61.19a42.39,42.39,0,1,0,0,43.42v20.68h6V40.51h-6Zm-36.39,58.1A36.39,36.39,0,1,1,172.82,82.9,36.43,36.43,0,0,1,136.43,119.29Z"/>
	  <path d="M200.9,46.51h39.39v70.78a36.43,36.43,0,0,1-36.39,36.4h-3v6h3a42.44,42.44,0,0,0,42.39-42.4V40.51H200.9Z"/>
	  <path d="M323.26,40.51a42.4,42.4,0,0,0-36.39,20.68V40.51h-6v84.78h6V82.9a36.4,36.4,0,0,1,72.79,0v42.39h6V82.9A42.44,42.44,0,0,0,323.26,40.51Z"/>
	  <polygon points="6.55 40.51 6.55 54.4 12.55 54.4 12.55 46.51 69.24 46.51 0 125.29 75.61 125.29 75.61 119.29 13.26 119.29 82.5 40.51 6.55 40.51"/>
	  <rect x="238.69" y="1.91" width="9.2" height="9.2" transform="translate(66.66 173.94) rotate(-45)"/>
	  <circle cx="136.43" cy="82.9" r="5.16"/>
	  <circle cx="432.52" cy="82.9" r="5.16"/>
	  <path d="M468.92,61.19a42.39,42.39,0,1,0,0,43.42v20.68h6V40.51h-6Zm-36.4,58.1a36.39,36.39,0,1,1,36.4-36.39A36.43,36.43,0,0,1,432.52,119.29Z"/>
	  <rect x="508.64" y="5.51" width="6" height="119.79"/>
	</g>
  </svg>